<svg xmlns="http://www.w3.org/2000/svg" width="64" height="64" viewBox="0 0 64 64" fill="none">
  <path d="M27.6 7.5h8.8l1.6 7.1c1.8.6 3.5 1.3 5.1 2.2l6.1-3.9 6.2 6.2-3.9 6.1c.9 1.6 1.7 3.3 2.2 5.1l7.1 1.6v8.8l-7.1 1.6c-.6 1.8-1.3 3.5-2.2 5.1l3.9 6.1-6.2 6.2-6.1-3.9c-1.6.9-3.3 1.7-5.1 2.2l-1.6 7.1h-8.8L26 58c-1.8-.6-3.5-1.3-5.1-2.2l-6.1 3.9-6.2-6.2 3.9-6.1c-.9-1.6-1.7-3.3-2.2-5.1l-7.1-1.6v-8.8l7.1-1.6c.6-1.8 1.3-3.5 2.2-5.1l-3.9-6.1 6.2-6.2 6.1 3.9c1.6-.9 3.3-1.7 5.1-2.2l1.6-7.1Z" stroke="#2F3645" stroke-width="5" stroke-linejoin="round"/>
  <circle cx="32" cy="32" r="9" stroke="#2F3645" stroke-width="5"/>
</svg>
