<svg xmlns="http://www.w3.org/2000/svg" width="64" height="64" viewBox="0 0 64 64" fill="none">
  <g transform="translate(32 32)">
    <rect x="-5" y="-29" width="10" height="14" rx="3" fill="#2A1004"/>
    <rect x="-5" y="-29" width="10" height="14" rx="3" fill="#2A1004" transform="rotate(45)"/>
    <rect x="-5" y="-29" width="10" height="14" rx="3" fill="#2A1004" transform="rotate(90)"/>
    <rect x="-5" y="-29" width="10" height="14" rx="3" fill="#2A1004" transform="rotate(135)"/>
    <rect x="-5" y="-29" width="10" height="14" rx="3" fill="#2A1004" transform="rotate(180)"/>
    <rect x="-5" y="-29" width="10" height="14" rx="3" fill="#2A1004" transform="rotate(225)"/>
    <rect x="-5" y="-29" width="10" height="14" rx="3" fill="#2A1004" transform="rotate(270)"/>
    <rect x="-5" y="-29" width="10" height="14" rx="3" fill="#2A1004" transform="rotate(315)"/>
    <circle cx="0" cy="0" r="22" fill="#2A1004"/>

    <rect x="-3.5" y="-26.5" width="7" height="12" rx="2.2" fill="#FFE07A"/>
    <rect x="-3.5" y="-26.5" width="7" height="12" rx="2.2" fill="#FFE07A" transform="rotate(45)"/>
    <rect x="-3.5" y="-26.5" width="7" height="12" rx="2.2" fill="#FFE07A" transform="rotate(90)"/>
    <rect x="-3.5" y="-26.5" width="7" height="12" rx="2.2" fill="#FFE07A" transform="rotate(135)"/>
    <rect x="-3.5" y="-26.5" width="7" height="12" rx="2.2" fill="#FFE07A" transform="rotate(180)"/>
    <rect x="-3.5" y="-26.5" width="7" height="12" rx="2.2" fill="#FFE07A" transform="rotate(225)"/>
    <rect x="-3.5" y="-26.5" width="7" height="12" rx="2.2" fill="#FFE07A" transform="rotate(270)"/>
    <rect x="-3.5" y="-26.5" width="7" height="12" rx="2.2" fill="#FFE07A" transform="rotate(315)"/>
    <circle cx="0" cy="0" r="18" fill="#FFE07A"/>
    <circle cx="0" cy="0" r="9" fill="#2A1004"/>
    <circle cx="0" cy="0" r="5.5" fill="#7A4218"/>
    <path d="M-12 -12C-8.5 -16 -3.8 -18 1.6 -17.4" stroke="#FFF3B0" stroke-width="2.4" stroke-linecap="round" opacity="0.85"/>
    <path d="M11.5 12.5C8.8 15.4 5.3 17.1 1.1 17.4" stroke="#B96B23" stroke-width="2.4" stroke-linecap="round" opacity="0.75"/>
  </g>
</svg>
